<?xml version="1.0" encoding="UTF-8" standalone="no"?>
<svg
   width="74.234695mm"
   height="67.616745mm"
   viewBox="0 0 74.234695 67.616745"
   version="1.1"
   id="svg1490"
   inkscape:version="1.3.2 (091e20e, 2023-11-25, custom)"
   sodipodi:docname="icon.svg"
   xmlns:inkscape="http://www.inkscape.org/namespaces/inkscape"
   xmlns:sodipodi="http://sodipodi.sourceforge.net/DTD/sodipodi-0.dtd"
   xmlns="http://www.w3.org/2000/svg"
   xmlns:svg="http://www.w3.org/2000/svg"
   xmlns:rdf="http://www.w3.org/1999/02/22-rdf-syntax-ns#"
   xmlns:cc="http://creativecommons.org/ns#"
   xmlns:dc="http://purl.org/dc/elements/1.1/">
  <defs
     id="defs1484" />
  <sodipodi:namedview
     id="base"
     pagecolor="#ffffff"
     bordercolor="#666666"
     borderopacity="1.0"
     inkscape:pageopacity="0.0"
     inkscape:pageshadow="2"
     inkscape:zoom="1.979899"
     inkscape:cx="213.64726"
     inkscape:cy="116.42008"
     inkscape:document-units="mm"
     inkscape:current-layer="g876"
     inkscape:document-rotation="0"
     showgrid="false"
     inkscape:window-width="1366"
     inkscape:window-height="705"
     inkscape:window-x="1912"
     inkscape:window-y="-8"
     inkscape:window-maximized="1"
     fit-margin-top="0"
     fit-margin-left="0"
     fit-margin-right="0"
     fit-margin-bottom="0"
     inkscape:showpageshadow="2"
     inkscape:pagecheckerboard="0"
     inkscape:deskcolor="#d1d1d1" />
  <metadata
     id="metadata1487">
    <rdf:RDF>
      <cc:Work
         rdf:about="">
        <dc:format>image/svg+xml</dc:format>
        <dc:type
           rdf:resource="http://purl.org/dc/dcmitype/StillImage" />
        <dc:title />
      </cc:Work>
    </rdf:RDF>
  </metadata>
  <g
     inkscape:label="Layer 1"
     inkscape:groupmode="layer"
     id="layer1"
     transform="translate(-0.1323,-0.1323)">
    <g
       id="g876"
       inkscape:export-xdpi="600.07385"
       inkscape:export-ydpi="600.07385"
       style="fill:#ffffff">
      <g
         id="g1663"
         transform="translate(-1734.1152,-1256.6559)"
         inkscape:export-xdpi="600.07385"
         inkscape:export-ydpi="600.07385"
         style="fill:#ffffff;fill-opacity:1;stroke:none">
        <path
           id="path1462-8-6-6-4-8"
           d="m 1734.2476,1256.7882 h 58.9367 l -0.01,28.5573 c -1.1591,0.1582 -0.2614,-1.8262 -3.3164,-2.5531 -0.6755,-0.1608 1.1669,-1.0759 1.5426,-2.1994 0.968,-2.8943 -1.1557,-5.338 -3.3341,-5.318 -2.003,0.018 -2.5314,1.5942 -3.5356,-0.9063 -1.1765,-2.9294 -3.4229,-3.0541 -4.494,-2.3825 -1.9611,1.2297 -0.4997,1.0659 -1.5172,1.0337 l -0.036,-1.5329 -1.928,0.047 c -12.3096,-9.9164 -21.1567,-8.3964 -21.8944,-0.094 l -5.717,0.047 v 29.5392 l 2.268,0.01 c 0.3259,1.6246 1.978,1.6284 1.5598,3.897 -0.3111,1.6874 1.8919,4.1227 4.8892,4.4574 1.0246,0.1144 0.2271,0.8567 0.9373,2.6869 0.6947,1.7899 -0.1527,2.579 -1.1397,3.6233 l -23.2133,0.029 z"
           style="fill:#ffffff;fill-opacity:1;stroke:none;stroke-width:0.264583px;stroke-linecap:butt;stroke-linejoin:miter;stroke-opacity:1"
           sodipodi:nodetypes="cccssssscccccccsssccc" />
      </g>
      <g
         id="g854"
         transform="matrix(0.46259778,0,0,0.46259778,16.652649,10.046112)"
         style="fill:#ffffff;fill-opacity:1">
        <path
           d="m 49.5,100.62 c -1.41,0.83 -6.26,5.39 -7.17,6.83 -0.96,1.51 -1.07,3.37 -1.03,5.11 0.14,5.47 -0.74,13.02 -6.13,12.1 -4.11,-0.7 -1.8,-8.63 -1.2,-11.32 0.87,-3.94 -2,-2.49 -2.76,-2.09 -2.54,1.32 -9.15,7.34 -11.54,0.84 -2.2,-6 6.13,-6.61 8.41,-7.14 2.4,-0.56 2.32,-2.61 0.89,-3.6 -2.73,-1.88 -8.97,-4.52 -6.35,-9.44 2.25,-4.22 8.64,0.02 10.27,2.69 0.83,1.36 1.44,3.39 2.75,4.35 1.3,0.95 2.88,0.22 4.16,-0.43 0.95,-0.48 1.85,-1.05 2.76,-1.6 1.73,-1.47 2.83,-3.55 2.83,-6.92 0,-3.04 -3.53,-6.83 -5,-9.25 -2.5,-4.12 -1.87,-7.53 -2.89,-9.06 -0.89,-1.34 -2.8,-1.29 -4.77,-1.86 -2.51,-0.56 -3.9,-0.4 -6,1.3 -1.55,1.26 -3.07,3 -4.07,4.76 -1.08,1.92 -1.4,4.18 -2.54,6.09 -1.54,2.56 -4.48,4.56 -7.42,3.19 -2.7,-1.26 -3.05,-4.28 -1.38,-6.58 1.47,-2.03 3.71,-2.94 4.91,-5.26 1.01,-1.95 -0.58,-2.77 -2.8,-2.19 -2.4,0.62 -10.17,3.04 -10.17,-3.04 0,-5.99 7.07,-4.52 10.11,-4 2.28,0.39 2.36,-1.5 1.61,-2.47 -1.86,-2.4 -7.56,-8.5 -4.13,-10.81 6.54,-4.4 9.66,6 10.13,8.72 0.62,3.57 5.94,4.04 9.15,2.28 3.15,-1.94 4.41,-5.42 3.17,-9.07 C 32,49 27.96,44.93 24.43,44.14 14.11,41.85 12.89,31.62 13.2,22.08 13.37,16.99 15.85,6.2 18.17,4.64 22.48,1.73 30.94,4.01 36.56,6.08 c 7.68,2.82 14.25,7.42 15.35,18.07 0.44,4.26 -2.46,9.13 -1.35,13.32 1.02,3.82 4.11,9.55 8.79,5.21 1.31,-1.67 4.76,-5.88 5.2,-8.05 0.4,-1.99 -0.09,-5.39 -0.88,-7.17 -1.48,-3.34 -1.76,-10.15 1.91,-10.54 6.16,-0.66 3.7,9.8 3.98,11.32 0.21,1.1 1.81,2.5 3.51,1.29 2.85,-2.02 5.31,-8.44 8.84,-4.93 4.7,4.66 -3.03,8.53 -4.56,9.58 -2.17,1.49 -1.61,3.62 0.13,3.79 2.26,0.21 10.28,-0.53 8.58,5.73 -1.49,5.48 -7.09,1.72 -10.15,0.07 -3.53,-1.91 -5.29,-2.53 -8.79,0.51 -0.73,0.63 -2.41,3.78 -3.14,4.86 -1.03,2.01 -1.01,4.11 1.13,5.05 1.86,0.82 3.96,2.29 5.5,3.76 2.91,2.77 4.27,6.06 5.12,8.14 1.12,2.75 2.82,3.73 5.36,3.64 1.97,-0.15 4.86,-1.55 6.48,-2.85 1.87,-1.51 2.79,-3.72 3.27,-6.01 0.63,-2.99 0.76,-4.15 1.16,-7.18 0.24,-1.81 0.17,-6.85 4.22,-6.35 5.29,0.64 2.15,9.33 1.67,11.09 -0.32,1.15 0.56,2.05 2.38,1.72 1.79,-0.32 8.1,-5.99 10.16,-0.04 1.79,5.2 -5.83,5.81 -8.64,6.86 -1.52,0.57 -2.15,2.29 0.55,3.36 2.63,1.04 10.06,5.03 5.72,9.28 -4.53,4.43 -10.07,-4.02 -12.55,-6.49 -3.02,-3.01 -11.95,4.19 -13.14,7.39 -1.03,4.6 1.15,8.65 3.38,12.88 3.13,5.93 5.29,10.36 10.72,13.48 5.26,3.03 8.98,4.29 14.57,2.63 4.97,-1.48 7.01,-6.12 6.35,-10.66 -0.43,-2.96 -3.37,-6.58 -8.53,-4.93 -2.66,0.85 -5.23,2.58 -6.27,1.4 -1.67,-1.89 4.13,-6.08 8.5,-6.97 6.38,-1.3 12.86,2.54 13.57,9.43 0.95,9.21 -4.89,18.39 -12.71,20.86 -11.17,3.53 -21.2,1.04 -30.06,-2.36 -5.57,-2.14 -14.47,-6.48 -19.18,-9.71 -2.64,-1.85 -9.32,-7.91 -13.21,-5.94 z"
           style="fill:#ffffff;fill-opacity:1"
           id="path837" />
        <circle
           cx="24.280001"
           cy="30.280001"
           r="4.25"
           style="fill:#ffffff;fill-opacity:1"
           id="circle839" />
        <circle
           cx="41.279999"
           cy="22.629999"
           r="4.25"
           style="fill:#ffffff;fill-opacity:1"
           id="circle841" />
      </g>
    </g>
  </g>
</svg>
